<svg xmlns="http://www.w3.org/2000/svg"><path fill="#204c97" d="M0 0h1600v800H0z"/><rect fill="#204c97"/><path d="M1600 0H0v720c49-17 100-28 151-34 112-12 226-2 335 20l10 2c117 24 232 59 348 92h756V0z" fill="#20569e"/><path d="M478 581l10 3c196 52 389 133 593 176 175 37 350 29 519-10V0H0v575c52-18 107-28 161-31 107-7 215 10 317 37z" fill="#1f60a6"/><path d="M0 0v429c56-18 114-27 171-27 103-1 204 22 300 54l9 3c183 62 365 146 562 192 187 44 376 35 558-12V0H0z" fill="#1e69ae"/><path d="M182 259c98 6 192 36 281 72l8 4c171 71 343 158 532 208 199 51 403 40 597-15V0H0v283c59-19 121-27 182-24z" fill="#1b73b6"/><path d="M1600 0H0v136c62-21 128-27 192-19 94 12 181 48 264 90l7 4c159 81 320 171 501 223 210 61 430 49 636-17V0z" fill="#1a61a4"/><path d="M455 86c146 91 297 183 469 239a1041 1041 0 00676-18V0H288c56 21 109 51 160 82l7 4z" fill="#184f92"/><path d="M1600 0H498c118 86 244 165 387 216a985 985 0 00715-20V0z" fill="#143d81"/><path d="M1398 155a861 861 0 00202-73V0H643c63 42 130 78 202 107 175 71 369 89 553 48z" fill="#0e2c70"/><path d="M1315 72c76-12 149-37 217-72H809a887 887 0 00506 72z" fill="#071c5f"/></svg>