<svg height="512" viewBox="0 0 60 60" width="512" xmlns="http://www.w3.org/2000/svg"><path d="M.7 31H1a29.1 29.1 0 0028 28v.3a1 1 0 002 0V59a29.1 29.1 0 0028-28h.3a1 1 0 000-2H59A29.1 29.1 0 0031 1V.7a1 1 0 00-2 0V1A29.1 29.1 0 001 29H.7a1 1 0 000 2zm30.9 26l.5-2.1c2.6-.2 5-.8 7.4-1.8s0 0 .1 0A24.8 24.8 0 0053 39.6c1-2.4 1.6-5 1.8-7.5l2-.5a27.1 27.1 0 01-25.3 25.3zm6.2-45.8a1 1 0 001.3-.5l.6-1.5c2.1 1 4 2.3 5.8 3.9l-.2.2a1 1 0 101.4 1.4l.2-.2c1.6 1.7 3 3.7 4 5.8l-1.6.6a1 1 0 00.8 1.9l1.5-.7c.6 1.7 1 3.5 1.2 5.3L40.3 24l3.6-6.6a1 1 0 00-1.4-1.4L36 19.7 32.6 7.2c1.8.2 3.6.6 5.3 1.2l-.7 1.5c-.2.5 0 1.1.6 1.3zm.5 12.4l-1.5-.4-.4-1.5 4.1-2.2zm-2 1.5l2.3.6L51.2 29H32.4zM51.2 31l-14.9 3.9-3.9-3.9zm-12.9 5.4l2.2 4.1-4-2.2.3-1.5zm4.2 7.5a1 1 0 001.4-1.4L40.3 36l12.5-3.3c-.2 1.8-.6 3.6-1.2 5.3l-1.5-.7a1 1 0 00-.8 1.9l1.5.6c-1 2.1-2.3 4-3.9 5.8l-.2-.2a1 1 0 00-1.4 1.4l.2.2a22.8 22.8 0 01-5.8 4l-.6-1.6a1 1 0 00-1.9.8l.7 1.5c-1.7.6-3.5 1-5.3 1.2L36 40.3zM57 28.4l-2-.5a24.8 24.8 0 00-15.3-21c-2.4-1-5-1.6-7.5-1.8l-.5-2a27.1 27.1 0 0125.3 25.3zM31 8.8l3.9 14.9-3.9 3.9zm0 23.6l3.9 3.9L31 51.2zm-2 18.8l-3.9-14.9 3.9-3.9zm-6.8-2.4a1 1 0 00-1.3.5l-.6 1.5c-2.1-1-4-2.3-5.8-3.9l.2-.2a1 1 0 00-1.4-1.4l-.2.2a22.8 22.8 0 01-4-5.8l1.6-.6a1 1 0 00-.8-1.9l-1.5.7c-.6-1.7-1-3.5-1.2-5.3L19.7 36 16 42.5a1 1 0 001.4 1.4l6.6-3.6 3.3 12.5c-1.8-.2-3.6-.6-5.3-1.2l.7-1.5c.2-.5 0-1.1-.6-1.3zM10.7 20.9l-1.5-.6c1-2.1 2.3-4 3.9-5.8l.2.2a1 1 0 001.4-1.4l-.2-.2c1.7-1.6 3.7-3 5.8-4l.6 1.6a1 1 0 001.9-.8L22 8.4c1.7-.6 3.5-1 5.3-1.2L24 19.7 17.5 16a1 1 0 00-1.4 1.4l3.6 6.6-12.5 3.3c.2-1.8.6-3.6 1.2-5.3l1.5.7a1 1 0 10.8-1.9zM8.8 31h18.8l-3.9 3.9zm14.8 7.3l-4.1 2.2 2.2-4 1.5.3zM8.8 29l12.6-3.3 2.3-.6 3.9 3.9zm10.7-9.5l4 2.2-.3 1.5-1.5.4zM29 8.8v18.8l-3.9-3.9zm-.6-5.7L28 5a24.8 24.8 0 00-21 15.3c-1 2.4-1.6 5-1.8 7.5l-2 .5A27.1 27.1 0 0128.4 3.1zM5.1 32a24.7 24.7 0 0015.3 21c2.4 1 5 1.6 7.5 1.8l.5 2A27.1 27.1 0 013.1 31.6z" fill="#fff" fill-rule="nonzero"/></svg>